<mxfile host="app.diagrams.net" modified="2022-06-15T14:00:31.078Z" agent="5.0 (X11)" etag="-yrbZyNhXY0qgt-B0Vf0" version="20.0.1" type="github">
  <diagram id="tQKzoFUhDa2zZlD9XtvQ" name="Page-1">
    <mxGraphModel dx="1386" dy="711" grid="1" gridSize="10" guides="1" tooltips="1" connect="1" arrows="1" fold="1" page="1" pageScale="1" pageWidth="1100" pageHeight="850" math="0" shadow="0">
      <root>
        <mxCell id="0" />
        <mxCell id="1" parent="0" />
        <mxCell id="zEeFxS3j3k9Rs45BbKG4-1" value="LogStream" style="swimlane;fontStyle=1;align=center;verticalAlign=top;childLayout=stackLayout;horizontal=1;startSize=26;horizontalStack=0;resizeParent=1;resizeParentMax=0;resizeLast=0;collapsible=1;marginBottom=0;" vertex="1" parent="1">
          <mxGeometry x="440" y="50" width="160" height="86" as="geometry" />
        </mxCell>
        <mxCell id="zEeFxS3j3k9Rs45BbKG4-2" value="+ field: type" style="text;strokeColor=none;fillColor=none;align=left;verticalAlign=top;spacingLeft=4;spacingRight=4;overflow=hidden;rotatable=0;points=[[0,0.5],[1,0.5]];portConstraint=eastwest;" vertex="1" parent="zEeFxS3j3k9Rs45BbKG4-1">
          <mxGeometry y="26" width="160" height="26" as="geometry" />
        </mxCell>
        <mxCell id="zEeFxS3j3k9Rs45BbKG4-3" value="" style="line;strokeWidth=1;fillColor=none;align=left;verticalAlign=middle;spacingTop=-1;spacingLeft=3;spacingRight=3;rotatable=0;labelPosition=right;points=[];portConstraint=eastwest;" vertex="1" parent="zEeFxS3j3k9Rs45BbKG4-1">
          <mxGeometry y="52" width="160" height="8" as="geometry" />
        </mxCell>
        <mxCell id="zEeFxS3j3k9Rs45BbKG4-4" value="+ method(type): type" style="text;strokeColor=none;fillColor=none;align=left;verticalAlign=top;spacingLeft=4;spacingRight=4;overflow=hidden;rotatable=0;points=[[0,0.5],[1,0.5]];portConstraint=eastwest;" vertex="1" parent="zEeFxS3j3k9Rs45BbKG4-1">
          <mxGeometry y="60" width="160" height="26" as="geometry" />
        </mxCell>
        <mxCell id="zEeFxS3j3k9Rs45BbKG4-5" value="FixedBuffer" style="swimlane;fontStyle=1;align=center;verticalAlign=top;childLayout=stackLayout;horizontal=1;startSize=26;horizontalStack=0;resizeParent=1;resizeParentMax=0;resizeLast=0;collapsible=1;marginBottom=0;" vertex="1" parent="1">
          <mxGeometry x="400" y="190" width="280" height="260" as="geometry">
            <mxRectangle x="380" y="200" width="100" height="26" as="alternateBounds" />
          </mxGeometry>
        </mxCell>
        <mxCell id="zEeFxS3j3k9Rs45BbKG4-6" value="- data_: char [SIZE_]&#xa;&#xa;- cur_: char *&#xa;&#xa;" style="text;strokeColor=none;fillColor=none;align=left;verticalAlign=top;spacingLeft=4;spacingRight=4;overflow=hidden;rotatable=0;points=[[0,0.5],[1,0.5]];portConstraint=eastwest;" vertex="1" parent="zEeFxS3j3k9Rs45BbKG4-5">
          <mxGeometry y="26" width="280" height="64" as="geometry" />
        </mxCell>
        <mxCell id="zEeFxS3j3k9Rs45BbKG4-7" value="" style="line;strokeWidth=1;fillColor=none;align=left;verticalAlign=middle;spacingTop=-1;spacingLeft=3;spacingRight=3;rotatable=0;labelPosition=right;points=[];portConstraint=eastwest;" vertex="1" parent="zEeFxS3j3k9Rs45BbKG4-5">
          <mxGeometry y="90" width="280" height="8" as="geometry" />
        </mxCell>
        <mxCell id="zEeFxS3j3k9Rs45BbKG4-8" value="+ FixedBuffer()&#xa;+~FixedBuffer()&#xa;+ Append(const char* buf, size_t len): void&#xa;+ get_data(): const char*&#xa;+ Length() const: int&#xa;+ get_current(): char *&#xa;+ Avail() const: int&#xa;+ Add(size_t len): void&#xa;+ Reset(): void&#xa;+ Bzero(): void&#xa;&#xa;" style="text;strokeColor=none;fillColor=none;align=left;verticalAlign=top;spacingLeft=4;spacingRight=4;overflow=hidden;rotatable=0;points=[[0,0.5],[1,0.5]];portConstraint=eastwest;" vertex="1" parent="zEeFxS3j3k9Rs45BbKG4-5">
          <mxGeometry y="98" width="280" height="162" as="geometry" />
        </mxCell>
        <mxCell id="zEeFxS3j3k9Rs45BbKG4-9" value="LogStream" style="swimlane;fontStyle=1;align=center;verticalAlign=top;childLayout=stackLayout;horizontal=1;startSize=26;horizontalStack=0;resizeParent=1;resizeParentMax=0;resizeLast=0;collapsible=1;marginBottom=0;" vertex="1" parent="1">
          <mxGeometry x="90" y="200" width="190" height="160" as="geometry" />
        </mxCell>
        <mxCell id="zEeFxS3j3k9Rs45BbKG4-10" value="- buffer_: FixedBuffer" style="text;strokeColor=none;fillColor=none;align=left;verticalAlign=top;spacingLeft=4;spacingRight=4;overflow=hidden;rotatable=0;points=[[0,0.5],[1,0.5]];portConstraint=eastwest;" vertex="1" parent="zEeFxS3j3k9Rs45BbKG4-9">
          <mxGeometry y="26" width="190" height="26" as="geometry" />
        </mxCell>
        <mxCell id="zEeFxS3j3k9Rs45BbKG4-11" value="" style="line;strokeWidth=1;fillColor=none;align=left;verticalAlign=middle;spacingTop=-1;spacingLeft=3;spacingRight=3;rotatable=0;labelPosition=right;points=[];portConstraint=eastwest;" vertex="1" parent="zEeFxS3j3k9Rs45BbKG4-9">
          <mxGeometry y="52" width="190" height="8" as="geometry" />
        </mxCell>
        <mxCell id="zEeFxS3j3k9Rs45BbKG4-12" value="+Append: void&#xa;+get_buffer(): const Buffer&amp;&#xa;+Reset(): void&#xa;" style="text;strokeColor=none;fillColor=none;align=left;verticalAlign=top;spacingLeft=4;spacingRight=4;overflow=hidden;rotatable=0;points=[[0,0.5],[1,0.5]];portConstraint=eastwest;" vertex="1" parent="zEeFxS3j3k9Rs45BbKG4-9">
          <mxGeometry y="60" width="190" height="100" as="geometry" />
        </mxCell>
        <mxCell id="zEeFxS3j3k9Rs45BbKG4-15" value="Fmt&#xa;" style="swimlane;fontStyle=1;align=center;verticalAlign=top;childLayout=stackLayout;horizontal=1;startSize=26;horizontalStack=0;resizeParent=1;resizeParentMax=0;resizeLast=0;collapsible=1;marginBottom=0;" vertex="1" parent="1">
          <mxGeometry x="780" y="40" width="160" height="120" as="geometry" />
        </mxCell>
        <mxCell id="zEeFxS3j3k9Rs45BbKG4-16" value="+data_: char[32]&#xa;+ len: int&#xa;" style="text;strokeColor=none;fillColor=none;align=left;verticalAlign=top;spacingLeft=4;spacingRight=4;overflow=hidden;rotatable=0;points=[[0,0.5],[1,0.5]];portConstraint=eastwest;" vertex="1" parent="zEeFxS3j3k9Rs45BbKG4-15">
          <mxGeometry y="26" width="160" height="44" as="geometry" />
        </mxCell>
        <mxCell id="zEeFxS3j3k9Rs45BbKG4-17" value="" style="line;strokeWidth=1;fillColor=none;align=left;verticalAlign=middle;spacingTop=-1;spacingLeft=3;spacingRight=3;rotatable=0;labelPosition=right;points=[];portConstraint=eastwest;" vertex="1" parent="zEeFxS3j3k9Rs45BbKG4-15">
          <mxGeometry y="70" width="160" height="8" as="geometry" />
        </mxCell>
        <mxCell id="zEeFxS3j3k9Rs45BbKG4-18" value="+get_data(): const char*&#xa;+ get_len(): int&#xa;" style="text;strokeColor=none;fillColor=none;align=left;verticalAlign=top;spacingLeft=4;spacingRight=4;overflow=hidden;rotatable=0;points=[[0,0.5],[1,0.5]];portConstraint=eastwest;" vertex="1" parent="zEeFxS3j3k9Rs45BbKG4-15">
          <mxGeometry y="78" width="160" height="42" as="geometry" />
        </mxCell>
        <mxCell id="zEeFxS3j3k9Rs45BbKG4-19" value="SourceFile" style="swimlane;fontStyle=0;childLayout=stackLayout;horizontal=1;startSize=26;fillColor=none;horizontalStack=0;resizeParent=1;resizeParentMax=0;resizeLast=0;collapsible=1;marginBottom=0;" vertex="1" parent="1">
          <mxGeometry x="880" y="240" width="140" height="78" as="geometry" />
        </mxCell>
        <mxCell id="zEeFxS3j3k9Rs45BbKG4-20" value="+data_: char*&#xa;" style="text;strokeColor=none;fillColor=none;align=left;verticalAlign=top;spacingLeft=4;spacingRight=4;overflow=hidden;rotatable=0;points=[[0,0.5],[1,0.5]];portConstraint=eastwest;" vertex="1" parent="zEeFxS3j3k9Rs45BbKG4-19">
          <mxGeometry y="26" width="140" height="26" as="geometry" />
        </mxCell>
        <mxCell id="zEeFxS3j3k9Rs45BbKG4-21" value="+len_: int" style="text;strokeColor=none;fillColor=none;align=left;verticalAlign=top;spacingLeft=4;spacingRight=4;overflow=hidden;rotatable=0;points=[[0,0.5],[1,0.5]];portConstraint=eastwest;" vertex="1" parent="zEeFxS3j3k9Rs45BbKG4-19">
          <mxGeometry y="52" width="140" height="26" as="geometry" />
        </mxCell>
      </root>
    </mxGraphModel>
  </diagram>
</mxfile>
